<svg id="ic_dob" xmlns="http://www.w3.org/2000/svg" width="16" height="16" viewBox="0 0 16 16">
  <rect id="bound" width="16" height="16" opacity="0"/>
  <path id="Fill" d="M13.543,14H.456a.457.457,0,0,1,0-.913h.609v-3.2A1.37,1.37,0,0,1,2.435,8.522h.457v-3.2a1.371,1.371,0,0,1,1.369-1.37H6.544V3.568A1.363,1.363,0,0,1,5.813,1.6L6.605.229a.456.456,0,0,1,.79,0L8.186,1.6a1.363,1.363,0,0,1-.73,1.968v.389H9.739a1.371,1.371,0,0,1,1.37,1.37v3.2h.456a1.371,1.371,0,0,1,1.37,1.369v3.2h.608a.457.457,0,1,1,0,.913ZM8.806,10.376a1.66,1.66,0,0,1,1.248.68c.254.277.377.389.578.389s.325-.112.578-.387a2.014,2.014,0,0,1,.812-.609V9.891a.457.457,0,0,0-.456-.456H2.435a.457.457,0,0,0-.456.456v.478a2.831,2.831,0,0,1,.676.593c.274.3.456.483.673.483.2,0,.325-.112.578-.387a1.659,1.659,0,0,1,1.248-.682,1.675,1.675,0,0,1,1.247.679c.238.256.372.39.579.39s.325-.112.578-.387A1.659,1.659,0,0,1,8.806,10.376ZM5.153,5.81A1.674,1.674,0,0,1,6.4,6.489c.239.257.373.391.58.391s.325-.112.578-.388A1.664,1.664,0,0,1,8.806,5.81a1.659,1.659,0,0,1,1.247.68c.053.058.1.106.144.15V5.326a.457.457,0,0,0-.457-.456H4.261a.457.457,0,0,0-.456.456V6.6l.025-.027.076-.081A1.664,1.664,0,0,1,5.153,5.81ZM7,1.37l-.4.686a.448.448,0,0,0-.06.227.456.456,0,1,0,.913,0,.448.448,0,0,0-.06-.227Z" transform="translate(1 1)" fill="#9393aa"/>
</svg>
