<svg id="ic_friends_blue" data-name="ic_friends blue" xmlns="http://www.w3.org/2000/svg" width="24" height="24" viewBox="0 0 24 24">
  <circle id="Shape" cx="12" cy="12" r="12" fill="#128c7e" opacity="0.1"/>
  <path id="Shape-2" data-name="Shape" d="M3.65,11.546h0a1.281,1.281,0,0,0,.78-.269l2.1-1.642h3.936a2.12,2.12,0,0,0,2.117-2.117v-5.4A2.12,2.12,0,0,0,10.471,0H2.118A2.12,2.12,0,0,0,0,2.117v5.4A2.12,2.12,0,0,0,2.118,9.636h.259v.642A1.273,1.273,0,0,0,3.65,11.546ZM10.471,1.412a.707.707,0,0,1,.706.706v5.4a.707.707,0,0,1-.706.706H6.282a.7.7,0,0,0-.5.212L3.79,9.987V8.93a.707.707,0,0,0-.706-.705H2.118a.707.707,0,0,1-.706-.706v-5.4a.707.707,0,0,1,.706-.706Z" transform="translate(6.059 5.929)" fill="#128c7e"/>
</svg>
