<svg xmlns="http://www.w3.org/2000/svg" width="20.81" height="20.768" viewBox="0 0 20.81 20.768">
  <g id="internet_1_" data-name="internet (1)" transform="translate(0 -0.316)">
    <path id="Path_199574" data-name="Path 199574" d="M231.816,348.709c1.591-.226,2.986-1.887,3.864-4.34a18.891,18.891,0,0,0-3.864-.455Zm0,0" transform="translate(-221.039 -327.624)" fill="#128c7e"/>
    <path id="Path_199575" data-name="Path 199575" d="M279.822,361.381c.094-.027.188-.055.281-.085s.156-.052.233-.08.183-.064.273-.1.154-.061.231-.092l.265-.112c.076-.034.152-.069.228-.1s.171-.082.256-.125l.223-.116q.125-.067.248-.137c.074-.042.146-.084.219-.128l.241-.149c.071-.045.143-.092.213-.139s.156-.108.233-.163l.206-.149c.074-.057.151-.117.225-.176s.132-.105.2-.16.145-.126.218-.19.127-.112.189-.169.14-.135.209-.2.121-.117.179-.178l.033-.035a12.5,12.5,0,0,0-2.548-.981,9.229,9.229,0,0,1-2.377,3.86l.09-.022c.08-.022.158-.047.235-.07Zm0,0" transform="translate(-266.503 -340.686)" fill="#128c7e"/>
    <path id="Path_199576" data-name="Path 199576" d="M340.769,231.684H336.31a19.286,19.286,0,0,1-.751,5.145,12.935,12.935,0,0,1,2.823,1.123,10.391,10.391,0,0,0,2.388-6.269Zm0,0" transform="translate(-319.959 -220.611)" fill="#128c7e"/>
    <path id="Path_199577" data-name="Path 199577" d="M231.816,113.9h4.83a18.606,18.606,0,0,0-.732-4.962,19.59,19.59,0,0,1-4.1.489Zm0,0" transform="translate(-221.039 -103.576)" fill="#128c7e"/>
    <path id="Path_199578" data-name="Path 199578" d="M231.816.316V5.111a18.9,18.9,0,0,0,3.864-.455C234.8,2.2,233.407.543,231.816.316Zm0,0" transform="translate(-221.039)" fill="#128c7e"/>
    <path id="Path_199579" data-name="Path 199579" d="M231.816,236.157a19.6,19.6,0,0,1,4.1.489,18.606,18.606,0,0,0,.732-4.963h-4.83Zm0,0" transform="translate(-221.039 -220.611)" fill="#128c7e"/>
    <path id="Path_199580" data-name="Path 199580" d="M338.381,80.844a12.935,12.935,0,0,1-2.823,1.123,19.287,19.287,0,0,1,.751,5.145h4.459a10.394,10.394,0,0,0-2.388-6.269Zm0,0" transform="translate(-319.958 -76.784)" fill="#128c7e"/>
    <path id="Path_199581" data-name="Path 199581" d="M284.385,9.675l-.032-.035c-.059-.061-.12-.119-.18-.178s-.138-.137-.209-.2-.125-.112-.188-.169-.144-.128-.218-.19-.13-.106-.2-.158-.151-.12-.227-.178-.135-.1-.2-.149-.156-.112-.235-.165-.14-.093-.211-.137-.161-.1-.243-.151-.144-.086-.217-.127-.167-.094-.251-.139-.149-.078-.223-.115-.172-.085-.26-.126-.15-.07-.227-.1-.177-.074-.266-.112-.153-.062-.23-.092-.182-.067-.273-.1-.155-.054-.233-.08-.186-.058-.281-.085c-.077-.023-.155-.046-.233-.066l-.091-.022a9.23,9.23,0,0,1,2.377,3.86,12.481,12.481,0,0,0,2.551-.982Zm0,0" transform="translate(-266.465 -6.179)" fill="#128c7e"/>
    <path id="Path_199582" data-name="Path 199582" d="M0,87.112H4.459a19.3,19.3,0,0,1,.751-5.145,12.919,12.919,0,0,1-2.822-1.123A10.391,10.391,0,0,0,0,87.112Zm0,0" transform="translate(0 -76.784)" fill="#128c7e"/>
    <path id="Path_199583" data-name="Path 199583" d="M136.559,348.709v-4.795a18.9,18.9,0,0,0-3.864.455C133.573,346.822,134.968,348.483,136.559,348.709Zm0,0" transform="translate(-126.526 -327.624)" fill="#128c7e"/>
    <path id="Path_199584" data-name="Path 199584" d="M116.751,231.684h-4.83a18.6,18.6,0,0,0,.732,4.963,19.577,19.577,0,0,1,4.1-.489Zm0,0" transform="translate(-106.718 -220.611)" fill="#128c7e"/>
    <path id="Path_199585" data-name="Path 199585" d="M136.559.316c-1.591.226-2.987,1.887-3.864,4.34a18.877,18.877,0,0,0,3.864.455Zm0,0" transform="translate(-126.526)" fill="#128c7e"/>
    <path id="Path_199586" data-name="Path 199586" d="M116.752,109.43a19.59,19.59,0,0,1-4.1-.489,18.6,18.6,0,0,0-.732,4.962h4.83Zm0,0" transform="translate(-106.718 -103.575)" fill="#128c7e"/>
    <path id="Path_199587" data-name="Path 199587" d="M67.115,6.789l-.09.022c-.079.021-.157.044-.235.067s-.186.055-.28.084-.157.053-.234.08-.182.064-.272.1-.154.061-.231.092l-.264.112c-.077.034-.152.069-.228.1s-.171.082-.256.125L64.8,7.69q-.125.067-.248.137t-.219.128c-.081.049-.161.1-.24.149s-.143.092-.213.139-.156.108-.233.163l-.206.149c-.076.057-.149.117-.225.176s-.133.105-.2.16-.145.125-.217.189-.128.112-.19.17-.139.134-.208.2-.121.118-.18.179l-.032.035a12.486,12.486,0,0,0,2.548.981,9.226,9.226,0,0,1,2.376-3.858Zm0,0" transform="translate(-59.3 -6.172)" fill="#128c7e"/>
    <path id="Path_199588" data-name="Path 199588" d="M62.439,358.756c.069.068.138.137.209.2s.125.112.189.169.144.128.218.19.13.106.2.158.149.12.228.178.135.1.2.149.156.111.235.165.14.093.211.138.161.1.243.151.144.086.217.127.167.094.251.139.149.078.223.115.172.085.26.126.15.07.227.1.177.074.266.112.153.062.23.092.182.067.273.1.155.054.233.08.186.058.281.085c.077.023.155.046.233.067l.091.022a9.231,9.231,0,0,1-2.377-3.86,12.486,12.486,0,0,0-2.548.981l.032.035c.056.06.116.119.177.178Zm0,0" transform="translate(-59.337 -340.638)" fill="#128c7e"/>
    <path id="Path_199589" data-name="Path 199589" d="M2.388,237.951a12.937,12.937,0,0,1,2.822-1.123,19.3,19.3,0,0,1-.751-5.145H0a10.393,10.393,0,0,0,2.388,6.269Zm0,0" transform="translate(0 -220.61)" fill="#128c7e"/>
  </g>
</svg>
