<svg xmlns="http://www.w3.org/2000/svg" width="12" height="14" viewBox="0 0 12 14">
  <g id="_ic_location_16" data-name=" ic_location_16" transform="translate(-2 -1)">
    <path id="Fill" d="M6,14c-.588,0-2.088-1.132-3.345-2.524A8.892,8.892,0,0,1,0,5.6,5.817,5.817,0,0,1,6,0a5.817,5.817,0,0,1,6,5.6,8.888,8.888,0,0,1-2.655,5.876C8.086,12.868,6.586,14,6,14ZM6,3.5A2.257,2.257,0,1,0,8.25,5.757,2.256,2.256,0,0,0,6,3.5ZM6,6.51a.752.752,0,1,1,.75-.752A.752.752,0,0,1,6,6.51Z" transform="translate(2 1)" fill="#9393aa"/>
  </g>
</svg>
