<svg xmlns="http://www.w3.org/2000/svg" width="21.74" height="19" viewBox="0 0 21.74 19">
  <g id="blog" transform="translate(-2 -6)">
    <path id="Path_199609" data-name="Path 199609" d="M54.4,19.617a1.437,1.437,0,0,0-.731-.2,1.459,1.459,0,0,0-1.264.731l-.015.026-.351.607.351.2,2.178,1.261.365-.632a1.459,1.459,0,0,0-.533-1.995Z" transform="translate(-31.756 -8.517)" fill="#e8fefb"/>
    <path id="Path_199610" data-name="Path 199610" d="M45.41,26.269l-.9-.519-2.375,4.111-1.1,1.9,1.264.731,1.264.731.38-.661,1.462-2.532,1.63-2.821Z" transform="translate(-24.775 -12.534)" fill="#c5ebe6"/>
    <path id="Path_199611" data-name="Path 199611" d="M43.251,43.672l-.183.314-1.18.585-1.264-.731-.084-1.315.183-.314,1.264.731Z" transform="translate(-24.458 -22.979)" fill="#c5ebe6"/>
    <path id="Path_199612" data-name="Path 199612" d="M9,21h4.385v3.654H9Z" transform="translate(-4.442 -9.519)" fill="#e8fefb"/>
    <path id="Path_199613" data-name="Path 199613" d="M33.226,37l-1.1,1.9-.183.314.084,1.315-.49.851H27V37Z" transform="translate(-15.865 -19.673)" fill="#e8fefb"/>
    <path id="Path_199614" data-name="Path 199614" d="M21.269,7.731v2.2H3v-2.2A.733.733,0,0,1,3.731,7H20.538A.733.733,0,0,1,21.269,7.731Z" transform="translate(-0.635 -0.635)" fill="#e8fefb"/>
    <g id="Group_58356" data-name="Group 58356" transform="translate(2 6)">
      <path id="Path_199615" data-name="Path 199615" d="M8,10h.731v.731H8Z" transform="translate(-5.808 -8.538)" fill="#128c7e"/>
      <path id="Path_199616" data-name="Path 199616" d="M12,10h.731v.731H12Z" transform="translate(-8.346 -8.538)" fill="#128c7e"/>
      <path id="Path_199617" data-name="Path 199617" d="M16,10h.731v.731H16Z" transform="translate(-10.885 -8.538)" fill="#128c7e"/>
      <path id="Path_199618" data-name="Path 199618" d="M12.75,20H8.365A.365.365,0,0,0,8,20.365v3.654a.365.365,0,0,0,.365.365H12.75a.365.365,0,0,0,.365-.365V20.365A.365.365,0,0,0,12.75,20Zm-.365,3.654H8.731V20.731h3.654Z" transform="translate(-5.808 -14.885)" fill="#128c7e"/>
      <path id="Path_199619" data-name="Path 199619" d="M26,20h1.462v.731H26Z" transform="translate(-17.231 -14.885)" fill="#128c7e"/>
      <path id="Path_199620" data-name="Path 199620" d="M32,20h5.846v.731H32Z" transform="translate(-21.038 -14.885)" fill="#128c7e"/>
      <path id="Path_199621" data-name="Path 199621" d="M26,24h8.038v.731H26Z" transform="translate(-17.231 -17.423)" fill="#128c7e"/>
      <path id="Path_199622" data-name="Path 199622" d="M26,28h3.654v.731H26Z" transform="translate(-17.231 -19.962)" fill="#128c7e"/>
      <path id="Path_199623" data-name="Path 199623" d="M38,28h2.192v.731H38Z" transform="translate(-24.846 -19.962)" fill="#128c7e"/>
      <path id="Path_199624" data-name="Path 199624" d="M8,36h5.115v.731H8Z" transform="translate(-5.808 -25.038)" fill="#128c7e"/>
      <path id="Path_199625" data-name="Path 199625" d="M8,40h5.115v.731H8Z" transform="translate(-5.808 -27.577)" fill="#128c7e"/>
      <path id="Path_199626" data-name="Path 199626" d="M8,44h5.115v.731H8Z" transform="translate(-5.808 -30.115)" fill="#128c7e"/>
      <path id="Path_199627" data-name="Path 199627" d="M8,48h5.115v.731H8Z" transform="translate(-5.808 -32.654)" fill="#128c7e"/>
      <path id="Path_199628" data-name="Path 199628" d="M22.827,10.783A1.778,1.778,0,0,0,21,10.791V7.1A1.1,1.1,0,0,0,19.9,6H3.1A1.1,1.1,0,0,0,2,7.1V23.9A1.1,1.1,0,0,0,3.1,25H19.9A1.1,1.1,0,0,0,21,23.9V17.6l2.5-4.322A1.829,1.829,0,0,0,22.827,10.783ZM15.463,21.346H11.5V17.692h5.228l-.964,1.671a.363.363,0,0,0-.048.206l.077,1.206Zm.471.646.365-.633.633.365-.365.633a.365.365,0,1,1-.633-.365Zm1.511-.816-.927-.535-.056-.877,1.771,1.023Zm1.216-.987-.633-.365,2.74-4.746-.633-.365L17.4,19.459l-.633-.365,3.106-5.379,1.9,1.1Zm1.571-7.108.183-.316,1.9,1.1-.183.316ZM3.1,6.731H19.9a.365.365,0,0,1,.365.365V8.935H2.731V7.1A.365.365,0,0,1,3.1,6.731ZM20.269,23.9a.365.365,0,0,1-.365.365H3.1a.365.365,0,0,1-.365-.365V9.666H20.269V11.56l-3.119,5.4H11.135a.365.365,0,0,0-.365.365v4.385a.365.365,0,0,0,.365.365h4.027a1.1,1.1,0,0,0,2.039.646l.493-.854,1.082-.535a.365.365,0,0,0,.155-.146l1.341-2.321Zm2.594-10.99-.183.316-1.9-1.1.183-.316a1.1,1.1,0,0,1,1.9,1.1Z" transform="translate(-2 -6)" fill="#128c7e"/>
    </g>
  </g>
</svg>
