<svg id="ic_friends_blue" data-name="ic_friends blue" xmlns="http://www.w3.org/2000/svg" width="24" height="24" viewBox="0 0 24 24">
  <circle id="Shape" cx="12" cy="12" r="12" fill="#ff4242" opacity="0.1"/>
  <path id="Shape-2" data-name="Shape" d="M6.585,11.744a1.288,1.288,0,0,1-.9-.366l-.025-.025L1.111,6.679a3.989,3.989,0,0,1,0-5.525,3.767,3.767,0,0,1,5.428,0l.046.047.046-.047a3.767,3.767,0,0,1,5.428,0,3.99,3.99,0,0,1,0,5.525L7.513,11.353A1.285,1.285,0,0,1,6.585,11.744ZM3.825,1.412a2.359,2.359,0,0,0-1.7.727,2.567,2.567,0,0,0,0,3.556l4.462,4.587,4.462-4.587a2.567,2.567,0,0,0,0-3.556,2.357,2.357,0,0,0-3.4,0l-.552.567a.705.705,0,0,1-1.012,0l-.552-.567A2.359,2.359,0,0,0,3.825,1.412Z" transform="translate(5.415 6)" fill="#ff4242"/>
</svg>
