<svg id="Group_7" data-name="Group 7" xmlns="http://www.w3.org/2000/svg" xmlns:xlink="http://www.w3.org/1999/xlink" width="22.5" height="5" viewBox="0 0 22.5 5">
  <defs>
    <clipPath id="clip-path">
      <path id="Mask" d="M17.5,2.5A2.5,2.5,0,1,1,20,5,2.5,2.5,0,0,1,17.5,2.5Zm-8.75,0A2.5,2.5,0,1,1,11.25,5,2.5,2.5,0,0,1,8.75,2.5ZM0,2.5A2.5,2.5,0,1,1,2.5,5,2.5,2.5,0,0,1,0,2.5Z" fill=""/>
    </clipPath>
  </defs>
  <path id="Mask-2" data-name="Mask" d="M17.5,2.5A2.5,2.5,0,1,1,20,5,2.5,2.5,0,0,1,17.5,2.5Zm-8.75,0A2.5,2.5,0,1,1,11.25,5,2.5,2.5,0,0,1,8.75,2.5ZM0,2.5A2.5,2.5,0,1,1,2.5,5,2.5,2.5,0,0,1,0,2.5Z" fill="#c5cee0"/>
</svg>
