<svg xmlns="http://www.w3.org/2000/svg" width="20.734" height="20.325" viewBox="0 0 20.734 20.325">
  <g id="attach" transform="translate(0 -5.044)">
    <path id="Path_199591" data-name="Path 199591" d="M12.2,32.634V18.758a1.924,1.924,0,0,1,1.924-1.924h13.6A1.924,1.924,0,0,0,25.8,15.043H13.095A3.1,3.1,0,0,0,10,18.138V30.843a1.924,1.924,0,0,0,1.924,1.924H12.2c0-.044-.005-.088-.005-.133Z" transform="translate(-9.595 -9.594)" fill="#e8fefb"/>
    <g id="Group_58355" data-name="Group 58355" transform="translate(2.605 7.24)">
      <path id="Path_199592" data-name="Path 199592" d="M488.289,477.1a1.932,1.932,0,0,1-.2.241A1.927,1.927,0,0,0,488.289,477.1Z" transform="translate(-470.924 -460.18)" fill="#fff"/>
      <path id="Path_199593" data-name="Path 199593" d="M100.142,495.5a1.908,1.908,0,0,1-.188-.038A1.893,1.893,0,0,0,100.142,495.5Z" transform="translate(-98.511 -477.799)" fill="#fff"/>
      <path id="Path_199594" data-name="Path 199594" d="M499.708,449.449h0a1.92,1.92,0,0,1-.1.6A1.92,1.92,0,0,0,499.708,449.449Z" transform="translate(-481.984 -433.649)" fill="#fff"/>
      <path id="Path_199595" data-name="Path 199595" d="M93.6,493.316a1.914,1.914,0,0,1-.268-.091A1.914,1.914,0,0,0,93.6,493.316Z" transform="translate(-92.159 -475.652)" fill="#fff"/>
      <path id="Path_199596" data-name="Path 199596" d="M72.667,476.3a1.932,1.932,0,0,1-.235-.285A1.93,1.93,0,0,0,72.667,476.3Z" transform="translate(-72.103 -459.136)" fill="#fff"/>
      <path id="Path_199597" data-name="Path 199597" d="M83.8,487.751a1.923,1.923,0,0,1-.4-.231A1.919,1.919,0,0,0,83.8,487.751Z" transform="translate(-82.629 -470.178)" fill="#fff"/>
      <path id="Path_199598" data-name="Path 199598" d="M475.374,488.071a1.924,1.924,0,0,1-.286.17A1.929,1.929,0,0,0,475.374,488.071Z" transform="translate(-458.454 -470.707)" fill="#fff"/>
      <path id="Path_199599" data-name="Path 199599" d="M107.167,496.724h0a1.958,1.958,0,0,1-.2-.01A1.958,1.958,0,0,0,107.167,496.724Z" transform="translate(-105.243 -479)" fill="#fff"/>
      <path id="Path_199600" data-name="Path 199600" d="M496.852,467.091q-.033.083-.074.162Q496.818,467.174,496.852,467.091Z" transform="translate(-479.265 -450.576)" fill="#fff"/>
      <path id="Path_199601" data-name="Path 199601" d="M468.77,493.466c-.05.02-.1.039-.152.055C468.67,493.5,468.72,493.486,468.77,493.466Z" transform="translate(-452.246 -475.883)" fill="#fff"/>
      <path id="Path_199602" data-name="Path 199602" d="M80.118,59.276H66.242A1.924,1.924,0,0,0,64.318,61.2V72.817l4.7-7.973a1.168,1.168,0,0,1,2.032.035L74.33,70.9a1.272,1.272,0,0,0,1.93.371l1.821-1.511a1.168,1.168,0,0,1,1.535.038l2.426,2.224V61.2A1.924,1.924,0,0,0,80.118,59.276ZM77.1,65.952a1.682,1.682,0,1,1,1.682-1.682A1.682,1.682,0,0,1,77.1,65.952Z" transform="translate(-64.318 -59.276)" fill="#fff"/>
      <path id="Path_199603" data-name="Path 199603" d="M64.318,449.449h0c0,.045,0,.089.005.133a1.913,1.913,0,0,0,.324.943A1.915,1.915,0,0,1,64.318,449.449Z" transform="translate(-64.318 -433.649)" fill="#fff"/>
    </g>
    <path id="Path_199604" data-name="Path 199604" d="M79.616,188.126a1.168,1.168,0,0,0-1.535-.038L76.26,189.6a1.272,1.272,0,0,1-1.93-.371l-3.278-6.019a1.168,1.168,0,0,0-2.032-.035l-4.7,7.973v2.259a1.923,1.923,0,0,0,1.443,1.863,1.894,1.894,0,0,0,.188.038l.1.012a1.953,1.953,0,0,0,.2.01H80.118l.1,0a1.93,1.93,0,0,0,.289-.037,1.9,1.9,0,0,0,.184-.047c.052-.016.1-.035.152-.055s.074-.031.11-.048a1.934,1.934,0,0,0,.878-.858q.041-.079.074-.162.022-.055.041-.112a1.921,1.921,0,0,0,.1-.6V190.35Z" transform="translate(-61.713 -170.365)" fill="#c5ebe6"/>
    <circle id="Ellipse_1126" data-name="Ellipse 1126" cx="1.682" cy="1.682" r="1.682" transform="translate(13.701 10.552)" fill="#fff"/>
    <path id="Path_199605" data-name="Path 199605" d="M330.429,135.237a2.087,2.087,0,1,0-2.087-2.087A2.089,2.089,0,0,0,330.429,135.237Zm0-3.364a1.277,1.277,0,1,1-1.277,1.277A1.279,1.279,0,0,1,330.429,131.873Z" transform="translate(-315.046 -120.916)" fill="#128c7e"/>
    <path id="Path_199606" data-name="Path 199606" d="M361.779,445.256a.4.4,0,0,0-.037-.07.393.393,0,0,0-.112-.112.4.4,0,0,0-.07-.037.38.38,0,0,0-.076-.023.4.4,0,0,0-.158,0,.381.381,0,0,0-.076.023.4.4,0,0,0-.07.037.381.381,0,0,0-.062.05.386.386,0,0,0-.05.062.4.4,0,0,0-.037.07.383.383,0,0,0-.023.076.391.391,0,0,0,0,.158.384.384,0,0,0,.023.076.4.4,0,0,0,.037.07.388.388,0,0,0,.05.062l.029.027.032.024a.4.4,0,0,0,.07.037.381.381,0,0,0,.076.023.391.391,0,0,0,.158,0,.38.38,0,0,0,.076-.023.4.4,0,0,0,.07-.037l.032-.024.029-.027a.384.384,0,0,0,.05-.062.4.4,0,0,0,.037-.07.414.414,0,0,0,.023-.076.411.411,0,0,0,0-.158A.412.412,0,0,0,361.779,445.256Z" transform="translate(-346.381 -422.145)" fill="#128c7e"/>
    <path id="Path_199607" data-name="Path 199607" d="M203.651,49.836a.428.428,0,0,0,.037.07.436.436,0,0,0,.051.062.387.387,0,0,0,.062.05.41.41,0,0,0,.07.037.422.422,0,0,0,.076.023.389.389,0,0,0,.158,0,.409.409,0,0,0,.076-.023.4.4,0,0,0,.07-.037.387.387,0,0,0,.062-.05.406.406,0,0,0,.05-.062.429.429,0,0,0,.037-.07.379.379,0,0,0,.023-.076.391.391,0,0,0,0-.158.379.379,0,0,0-.023-.076.429.429,0,0,0-.037-.07.406.406,0,0,0-.05-.062.387.387,0,0,0-.062-.05.4.4,0,0,0-.07-.037.409.409,0,0,0-.076-.023.4.4,0,0,0-.158,0,.422.422,0,0,0-.076.023.41.41,0,0,0-.07.037.387.387,0,0,0-.062.05.436.436,0,0,0-.051.062.428.428,0,0,0-.037.07.379.379,0,0,0-.023.076.391.391,0,0,0,0,.158A.379.379,0,0,0,203.651,49.836Z" transform="translate(-195.374 -42.441)" fill="#128c7e"/>
    <path id="Path_199608" data-name="Path 199608" d="M18.471,6.837a2.332,2.332,0,0,0-2.266-1.793H3.5A3.5,3.5,0,0,0,0,8.543V21.249a2.331,2.331,0,0,0,2.263,2.327,2.332,2.332,0,0,0,2.266,1.793H18.4a2.332,2.332,0,0,0,2.329-2.329V9.164A2.331,2.331,0,0,0,18.471,6.837Zm1.453,16.2A1.521,1.521,0,0,1,18.4,24.559H4.529A1.52,1.52,0,0,1,3.01,23.04V20.892l4.646-7.877a.763.763,0,0,1,1.328.023l2,3.673,2.908,5.339a.4.4,0,0,0,.711-.387l-.944-1.733a1.67,1.67,0,0,0,1.146-.384l1.821-1.511a.766.766,0,0,1,1,.025l.1.087.81.742,1.39,1.274Zm0-3.976-1.39-1.274-.81-.617a1.58,1.58,0,0,0-1.615.238l-1.821,1.511a.867.867,0,0,1-1.315-.253l-1.278-2.346-.713-1.31h0L9.694,12.65A1.573,1.573,0,0,0,6.958,12.6L3.009,19.3V9.164A1.521,1.521,0,0,1,4.528,7.645h2.5a.4.4,0,0,0,0-.81h-2.5A2.332,2.332,0,0,0,2.2,9.164v13.6A1.521,1.521,0,0,1,.81,21.249V8.543A2.693,2.693,0,0,1,3.5,5.854H16.205a1.521,1.521,0,0,1,1.42.981H10.27a.4.4,0,0,0,0,.81h7.454l.81.006a1.521,1.521,0,0,1,1.39,1.513Z" transform="translate(0 0)" fill="#128c7e"/>
  </g>
</svg>
