<svg xmlns="http://www.w3.org/2000/svg" width="23.006" height="23.799" viewBox="0 0 23.006 23.799">
  <g id="location-pin" transform="translate(-0.484 0.011)">
    <path id="Path_199637" data-name="Path 199637" d="M16.417,19.417a3.57,3.57,0,1,0-3.57-3.57A3.57,3.57,0,0,0,16.417,19.417Zm7.806-4.986a5.157,5.157,0,0,0-2.8,8.088l-.182.143a58.374,58.374,0,0,1-4.823,5.878S8.483,20.23,8.483,15.847a7.933,7.933,0,0,1,15.74-1.416Zm0,0" transform="translate(-7.603 -7.529)" fill="#fbe8e5"/>
    <g id="Group_58357" data-name="Group 58357" transform="translate(0.484 -0.011)">
      <path id="Path_199638" data-name="Path 199638" d="M23.491,11.888a5.535,5.535,0,0,0-6.57-5.456A8.326,8.326,0,0,0,.484,8.318c0,3.8,5.524,10.208,7.422,12.3H5.641v.793h6.347v-.793H9.719A59.113,59.113,0,0,0,13.8,15.582a5.551,5.551,0,0,0,2.943,1.727v.528a.4.4,0,0,0-.4.4V22.2a1.587,1.587,0,1,0,3.173,0V18.234a.4.4,0,0,0-.4-.4v-.528a5.56,5.56,0,0,0,4.363-5.422ZM8.814,20.429C7.4,18.9,1.278,12.031,1.278,8.318A7.533,7.533,0,0,1,16.152,6.634,5.54,5.54,0,0,0,13.3,14.928a58.526,58.526,0,0,1-4.482,5.5Zm4.363-8.542a4.76,4.76,0,1,1,4.76,4.76,4.76,4.76,0,0,1-4.76-4.76ZM18.731,22.2a.793.793,0,1,1-1.587,0v-3.57h1.587Zm-.4-4.363h-.793v-.417c.132.009.263.02.4.02s.265-.011.4-.02Zm0,0" transform="translate(-0.484 0.011)" fill="#e5634d"/>
      <path id="Path_199639" data-name="Path 199639" d="M276.451,167.109a3.173,3.173,0,0,1,0-6.347v-.793a3.967,3.967,0,0,0,0,7.933Zm0,0" transform="translate(-258.997 -152.037)" fill="#e5634d"/>
      <path id="Path_199640" data-name="Path 199640" d="M92.451,87.969a3.967,3.967,0,1,0,3.967,3.967A3.967,3.967,0,0,0,92.451,87.969Zm0,7.14a3.173,3.173,0,1,1,3.173-3.173A3.173,3.173,0,0,1,92.451,95.109Zm0,0" transform="translate(-84.121 -83.607)" fill="#e5634d"/>
    </g>
  </g>
</svg>
