<svg xmlns="http://www.w3.org/2000/svg" width="19.178" height="19.18" viewBox="0 0 19.178 19.18">
  <g id="place" transform="translate(-0.029)">
    <ellipse id="Ellipse_1127" data-name="Ellipse 1127" cx="9.214" cy="3.915" rx="9.214" ry="3.915" transform="translate(0.404 10.975)" fill="#c5ebe6"/>
    <ellipse id="Ellipse_1128" data-name="Ellipse 1128" cx="5.314" cy="1.77" rx="5.314" ry="1.77" transform="translate(4.304 12.342)" fill="#e8fefb"/>
    <path id="Path_199629" data-name="Path 199629" d="M129.037,15.135a5.136,5.136,0,1,0-9.1,3.269h0l3.964,5.079,3.983-5.106h0A5.115,5.115,0,0,0,129.037,15.135ZM123.9,18.214a3,3,0,1,1,3-3A3,3,0,0,1,123.9,18.214Z" transform="translate(-114.288 -9.624)" fill="#e8fefb"/>
    <path id="Path_199630" data-name="Path 199630" d="M114.279,14.233a.375.375,0,0,1-.3-.144L110.019,9.01,110,8.983a5.511,5.511,0,1,1,8.562-.005l0,.005-3.984,5.106A.374.374,0,0,1,114.279,14.233Zm-3.642-5.65,3.642,4.666,3.679-4.716.014-.018a4.761,4.761,0,1,0-7.366.025A.378.378,0,0,1,110.636,8.584Z" transform="translate(-104.666)" fill="#128c7e"/>
    <path id="Path_199631" data-name="Path 199631" d="M169.254,66.036a3.371,3.371,0,1,1,.959-6.6.375.375,0,1,1-.213.718,2.622,2.622,0,1,0,1.768,1.769.375.375,0,0,1,.719-.212,3.372,3.372,0,0,1-3.233,4.328Z" transform="translate(-159.641 -57.072)" fill="#128c7e"/>
    <path id="Path_199632" data-name="Path 199632" d="M302.817,83.487a.373.373,0,0,1-.265-.11l-.007-.007a.375.375,0,0,1,.53-.53l.007.007a.375.375,0,0,1-.265.639Z" transform="translate(-291.079 -79.632)" fill="#128c7e"/>
    <path id="Path_199633" data-name="Path 199633" d="M9.618,294.647a17.563,17.563,0,0,1-6.662-1.177c-1.887-.8-2.927-1.908-2.927-3.113,0-1.034.75-1.986,2.169-2.751a14.361,14.361,0,0,1,5.1-1.416.375.375,0,1,1,.081.745,13.611,13.611,0,0,0-4.825,1.331c-1.145.618-1.776,1.36-1.776,2.092,0,.873.9,1.757,2.471,2.424A16.808,16.808,0,0,0,9.618,293.9a16.808,16.808,0,0,0,6.369-1.117c1.57-.667,2.471-1.551,2.471-2.424,0-1.033-1.241-2.057-3.32-2.742a.375.375,0,1,1,.234-.712c2.437.8,3.835,2.061,3.835,3.453,0,1.206-1.039,2.311-2.927,3.113A17.564,17.564,0,0,1,9.618,294.647Z" transform="translate(0 -275.467)" fill="#128c7e"/>
    <path id="Path_199634" data-name="Path 199634" d="M351.919,293.8a.377.377,0,0,1-.074-.007l-.013,0a.375.375,0,1,1,.148-.734l.013,0a.375.375,0,0,1-.074.742Z" transform="translate(-338.334 -282.07)" fill="#128c7e"/>
    <path id="Path_199635" data-name="Path 199635" d="M160.953,329.731a.375.375,0,0,1-.1-.736l.026-.006a.375.375,0,1,1,.073.742Z" transform="translate(-154.535 -316.658)" fill="#128c7e"/>
    <path id="Path_199636" data-name="Path 199636" d="M109.833,324.958c-2.827,0-5.689-.737-5.689-2.144,0-.355.2-.875,1.128-1.331a.375.375,0,1,1,.329.673c-.443.217-.708.463-.708.658,0,.214.341.576,1.3.9a13.516,13.516,0,0,0,7.279,0c.96-.32,1.3-.682,1.3-.9,0-.443-1.3-1.158-3.748-1.349a.375.375,0,0,1,.058-.747c2.048.16,4.439.805,4.439,2.1C115.521,324.221,112.66,324.958,109.833,324.958Z" transform="translate(-100.215 -308.702)" fill="#128c7e"/>
  </g>
</svg>
